<svg width="32" height="32" viewBox="0 0 32 32" fill="none" xmlns="http://www.w3.org/2000/svg">
  <g clip-path="url(#clip0_22_7372)">
    <path
      d="M4.37739 14.5867C4.00285 14.9617 3.79248 15.47 3.79248 16C3.79248 16.53 4.00285 17.0384 4.37739 17.4134L11.9187 24.9587C12.2939 25.3339 12.8028 25.5447 13.3334 25.5447C13.864 25.5447 14.3729 25.3339 14.7481 24.9587C15.1232 24.5835 15.334 24.0746 15.334 23.544C15.334 23.0134 15.1232 22.5046 14.7481 22.1294L10.6201 18H26.0001C26.5305 18 27.0392 17.7893 27.4143 17.4143C27.7893 17.0392 28.0001 16.5305 28.0001 16C28.0001 15.4696 27.7893 14.9609 27.4143 14.5858C27.0392 14.2107 26.5305 14 26.0001 14H10.6201L14.7481 9.87204C14.9338 9.68626 15.0812 9.46571 15.1817 9.22298C15.2823 8.98025 15.334 8.7201 15.334 8.45737C15.334 8.19464 15.2823 7.93449 15.1817 7.69176C15.0812 7.44903 14.9338 7.22848 14.7481 7.0427C14.5623 6.85693 14.3417 6.70956 14.099 6.60902C13.8563 6.50848 13.5961 6.45673 13.3334 6.45673C13.0707 6.45673 12.8105 6.50848 12.5678 6.60902C12.325 6.70956 12.1045 6.85693 11.9187 7.0427L4.37739 14.5867Z" />
  </g>
  <defs>
    <clipPath id="clip0_22_7372">
      <rect width="32" height="32" transform="matrix(0 -1 1 0 0 32)" />
    </clipPath>
  </defs>
</svg>