<svg width="20" height="21" viewBox="0 0 20 21" fill="none" xmlns="http://www.w3.org/2000/svg">
  <path fill-rule="evenodd" clip-rule="evenodd"
    d="M11 1.00268e-07C11.5046 -0.000159579 11.9906 0.190406 12.3605 0.533497C12.7305 0.876588 12.9572 1.34684 12.995 1.85L13 2V16H14V6.5C14 6.38297 14.041 6.26964 14.1159 6.17974C14.1908 6.08984 14.2949 6.02907 14.41 6.008L14.5 6H16C16.5046 5.99984 16.9906 6.19041 17.3605 6.5335C17.7305 6.87659 17.9572 7.34685 17.995 7.85L18 8V16H19C19.2549 16.0003 19.5 16.0979 19.6854 16.2728C19.8707 16.4478 19.9822 16.687 19.9972 16.9414C20.0121 17.1958 19.9293 17.4464 19.7657 17.6418C19.6021 17.8373 19.3701 17.9629 19.117 17.993L19 18H0.999998C0.745119 17.9997 0.499966 17.9021 0.31463 17.7272C0.129294 17.5522 0.0177634 17.313 0.0028263 17.0586C-0.0121108 16.8042 0.070673 16.5536 0.234263 16.3582C0.397854 16.1627 0.629902 16.0371 0.882998 16.007L0.999998 16H2V2C1.99984 1.49542 2.1904 1.00943 2.5335 0.639452C2.87659 0.269471 3.34684 0.0428434 3.85 0.00500021L4 1.00268e-07H11ZM9 12H6V14H9V12ZM9 8H6V10H9V8ZM9 4H6V6H9V4Z" />
</svg>