<svg width="28" height="28" viewBox="0 0 28 28" fill="none" xmlns="http://www.w3.org/2000/svg">
  <path
    d="M7.77753 26.5625H20.2225C22.6485 26.5625 23.8555 25.332 23.8555 22.8945V12.254H15.371C13.871 12.254 13.168 11.539 13.168 10.039V1.4375H7.77753C5.36353 1.4375 4.14453 2.6795 4.14453 5.1175V22.8945C4.14453 25.3435 5.36353 26.5625 7.77753 26.5625ZM15.4065 10.6485H23.7265C23.6445 10.168 23.3045 9.699 22.754 9.125L16.285 2.551C15.746 1.9885 15.254 1.6485 14.7615 1.566V10.016C14.7615 10.4375 14.9845 10.6485 15.4065 10.6485ZM9.48853 17.3285C9.00803 17.3285 8.66803 16.9885 8.66803 16.5315C8.66803 16.074 9.00803 15.7345 9.48803 15.7345H18.523C18.992 15.7345 19.3555 16.0745 19.3555 16.531C19.3555 16.9885 18.992 17.328 18.5235 17.328L9.48853 17.3285ZM9.48853 21.793C9.00803 21.793 8.66803 21.453 8.66803 20.996C8.66803 20.539 9.00803 20.199 9.48803 20.199H18.523C18.992 20.199 19.3555 20.539 19.3555 20.996C19.3555 21.453 18.992 21.793 18.5235 21.793H9.48853Z" />
</svg>