<svg width="25" height="24" viewBox="0 0 25 24" fill="none" xmlns="http://www.w3.org/2000/svg">
  <path
    d="M13.4999 20.9999H21.4999M21.6739 6.81189C21.9357 6.55017 22.1434 6.23944 22.2851 5.89746C22.4268 5.55547 22.4998 5.18893 22.4998 4.81875C22.4999 4.44857 22.427 4.082 22.2854 3.73998C22.1438 3.39796 21.9362 3.08718 21.6744 2.82539C21.4127 2.5636 21.102 2.35593 20.76 2.21422C20.418 2.07252 20.0515 1.99956 19.6813 1.99951C19.3111 1.99947 18.9445 2.07233 18.6025 2.21395C18.2605 2.35557 17.9497 2.56317 17.6879 2.82489L4.34193 16.1739C4.10975 16.4054 3.93805 16.6904 3.84193 17.0039L2.52093 21.3559C2.49509 21.4424 2.49314 21.5342 2.51529 21.6217C2.53743 21.7092 2.58285 21.7891 2.64673 21.8529C2.71061 21.9167 2.79055 21.962 2.87809 21.984C2.96563 22.006 3.05749 22.0039 3.14393 21.9779L7.49693 20.6579C7.8101 20.5626 8.09511 20.392 8.32693 20.1609L21.6739 6.81189Z"
    stroke="currentColor" stroke-width="2" stroke-linecap="round" stroke-linejoin="round" />
</svg>