<svg width="25" height="24" viewBox="0 0 25 24" fill="none" xmlns="http://www.w3.org/2000/svg">
  <path
    d="M12.5001 3C17.8921 3 22.3781 6.88 23.3191 12C22.3791 17.12 17.8921 21 12.5001 21C7.10813 21 2.62213 17.12 1.68213 12C2.62213 6.88 7.10813 3 12.5001 3ZM12.5001 19C14.5398 18.9998 16.5189 18.3071 18.1136 17.0355C19.7083 15.7638 20.824 13.9884 21.2781 12C20.8228 10.0128 19.7066 8.23896 18.1121 6.96854C16.5177 5.69813 14.5393 5.00635 12.5006 5.00635C10.4619 5.00635 8.48359 5.69813 6.88913 6.96854C5.29467 8.23896 4.17849 10.0128 3.72313 12C4.17722 13.9883 5.2928 15.7635 6.88727 17.0352C8.48174 18.3068 10.4607 18.9996 12.5001 19ZM12.5001 16.5C11.3067 16.5 10.1621 16.0259 9.31815 15.182C8.47424 14.3381 8.00013 13.1935 8.00013 12C8.00013 10.8065 8.47424 9.66193 9.31815 8.81802C10.1621 7.97411 11.3067 7.5 12.5001 7.5C13.6936 7.5 14.8382 7.97411 15.6821 8.81802C16.526 9.66193 17.0001 10.8065 17.0001 12C17.0001 13.1935 16.526 14.3381 15.6821 15.182C14.8382 16.0259 13.6936 16.5 12.5001 16.5ZM12.5001 14.5C13.1632 14.5 13.7991 14.2366 14.2679 13.7678C14.7367 13.2989 15.0001 12.663 15.0001 12C15.0001 11.337 14.7367 10.7011 14.2679 10.2322C13.7991 9.76339 13.1632 9.5 12.5001 9.5C11.8371 9.5 11.2012 9.76339 10.7324 10.2322C10.2635 10.7011 10.0001 11.337 10.0001 12C10.0001 12.663 10.2635 13.2989 10.7324 13.7678C11.2012 14.2366 11.8371 14.5 12.5001 14.5Z" />
</svg>