<svg width="25" height="24" viewBox="0 0 25 24" fill="none" xmlns="http://www.w3.org/2000/svg">
  <path fill-rule="evenodd" clip-rule="evenodd"
    d="M18.5 3C19.2956 3 20.0587 3.31607 20.6213 3.87868C21.1839 4.44129 21.5 5.20435 21.5 6V18C21.5 18.7956 21.1839 19.5587 20.6213 20.1213C20.0587 20.6839 19.2956 21 18.5 21H6.5C5.70435 21 4.94129 20.6839 4.37868 20.1213C3.81607 19.5587 3.5 18.7956 3.5 18V6C3.5 5.20435 3.81607 4.44129 4.37868 3.87868C4.94129 3.31607 5.70435 3 6.5 3H18.5ZM8.5 10C8.23478 10 7.98043 10.1054 7.79289 10.2929C7.60536 10.4804 7.5 10.7348 7.5 11V16C7.5 16.2652 7.60536 16.5196 7.79289 16.7071C7.98043 16.8946 8.23478 17 8.5 17C8.76522 17 9.01957 16.8946 9.20711 16.7071C9.39464 16.5196 9.5 16.2652 9.5 16V11C9.5 10.7348 9.39464 10.4804 9.20711 10.2929C9.01957 10.1054 8.76522 10 8.5 10ZM11.5 9C11.2348 9 10.9804 9.10536 10.7929 9.29289C10.6054 9.48043 10.5 9.73478 10.5 10V16C10.5 16.2652 10.6054 16.5196 10.7929 16.7071C10.9804 16.8946 11.2348 17 11.5 17C11.7652 17 12.0196 16.8946 12.2071 16.7071C12.3946 16.5196 12.5 16.2652 12.5 16V12.34C12.805 11.996 13.32 11.592 13.893 11.347C14.226 11.205 14.727 11.147 15.075 11.257C15.1904 11.2863 15.2933 11.3523 15.368 11.445C15.42 11.515 15.5 11.671 15.5 12V16C15.5 16.2652 15.6054 16.5196 15.7929 16.7071C15.9804 16.8946 16.2348 17 16.5 17C16.7652 17 17.0196 16.8946 17.2071 16.7071C17.3946 16.5196 17.5 16.2652 17.5 16V12C17.5 11.33 17.33 10.734 16.976 10.256C16.6503 9.82256 16.1944 9.50472 15.675 9.349C14.773 9.066 13.774 9.223 13.107 9.509C12.8935 9.60084 12.6854 9.70502 12.484 9.821C12.4421 9.59059 12.3206 9.3822 12.1408 9.23216C11.961 9.08213 11.7342 8.99996 11.5 9ZM8.5 7C8.23478 7 7.98043 7.10536 7.79289 7.29289C7.60536 7.48043 7.5 7.73478 7.5 8C7.5 8.26522 7.60536 8.51957 7.79289 8.70711C7.98043 8.89464 8.23478 9 8.5 9C8.76522 9 9.01957 8.89464 9.20711 8.70711C9.39464 8.51957 9.5 8.26522 9.5 8C9.5 7.73478 9.39464 7.48043 9.20711 7.29289C9.01957 7.10536 8.76522 7 8.5 7Z"
    fill="currentColor" />
</svg>