<svg width="24" height="24" viewBox="0 0 24 24" fill="none" xmlns="http://www.w3.org/2000/svg">
  <path
    d="M20.974 16.164C20.6893 17.054 20.1993 17.4993 19.504 17.5C18.6267 17.5 17.7643 16.9733 16.917 15.92C16.3283 15.1893 15.5027 13.8 14.44 11.752C14.0348 10.9658 13.6117 10.1889 13.171 9.422C13.481 8.934 13.7573 8.542 14 8.246C14.9573 7.082 15.959 6.5 17.005 6.5C17.8397 6.5 18.635 7.036 19.391 8.108C20.167 9.20867 20.711 10.5687 21.023 12.188C21.3297 13.782 21.3133 15.108 20.974 16.164ZM12.004 11.429C12.214 11.8143 12.434 12.2283 12.664 12.671C13.7887 14.8377 14.687 16.3387 15.359 17.174C16.607 18.724 17.989 19.499 19.505 19.499C20.361 19.499 21.0933 19.229 21.702 18.689C22.2267 18.2223 22.619 17.5837 22.879 16.773C23.3223 15.393 23.3583 13.7387 22.987 11.81C22.621 9.90867 21.967 8.29 21.025 6.954C19.871 5.318 18.531 4.5 17.005 4.5C15.329 4.5 13.8123 5.32533 12.455 6.976C12.313 7.14867 12.163 7.34667 12.005 7.57C11.8624 7.36648 11.7123 7.16834 11.555 6.976C10.1977 5.326 8.68101 4.50067 7.00501 4.5C5.47901 4.5 4.13901 5.31833 2.98501 6.955C2.04301 8.291 1.38901 9.90967 1.02301 11.811C0.652346 13.739 0.688346 15.3933 1.13101 16.774C1.39101 17.5847 1.78335 18.223 2.30801 18.689C2.91668 19.229 3.64901 19.4993 4.50501 19.5C6.02101 19.5 7.40301 18.725 8.65101 17.175C9.32301 16.3397 10.221 14.839 11.345 12.673C11.575 12.229 11.795 11.8147 12.005 11.43M10.839 9.422C10.449 10.0953 10.0263 10.872 9.57101 11.752C8.50768 13.8 7.68201 15.1897 7.09401 15.921C6.24468 16.9737 5.38168 17.5 4.50501 17.5C3.81101 17.5 3.32101 17.0543 3.03501 16.163C2.69701 15.107 2.68101 13.7823 2.98701 12.189C3.29768 10.569 3.84168 9.20867 4.61901 8.108C5.37501 7.036 6.17035 6.5 7.00501 6.5C8.05168 6.5 9.05335 7.082 10.01 8.246C10.2533 8.542 10.5303 8.934 10.839 9.422Z"
    fill="currentColor" />
</svg>