<svg width="25" height="25" viewBox="0 0 25 25" fill="none" xmlns="http://www.w3.org/2000/svg">
  <path
    d="M4.51096 21.418H20.4888C20.7483 21.4179 21.0033 21.3506 21.229 21.2224C21.4547 21.0943 21.6433 20.9099 21.7763 20.6871C21.9094 20.4643 21.9824 20.2108 21.9881 19.9513C21.9939 19.6919 21.9323 19.4354 21.8092 19.2069L13.8208 4.37094C13.2541 3.31906 11.7456 3.31906 11.1789 4.37094L3.19049 19.2069C3.06747 19.4354 3.00583 19.6919 3.0116 19.9513C3.01737 20.2108 3.09035 20.4643 3.2234 20.6871C3.35646 20.9099 3.54504 21.0943 3.77072 21.2224C3.9964 21.3506 4.25146 21.4179 4.51096 21.418Z"
    stroke="currentColor" stroke-width="2" stroke-linecap="round" stroke-linejoin="round" />
  <path
    d="M12.2311 9.6588L12.5002 15.3776L12.7688 9.66115C12.7705 9.6246 12.7646 9.5881 12.7517 9.55388C12.7388 9.51966 12.719 9.48843 12.6936 9.46211C12.6682 9.43578 12.6377 9.41492 12.604 9.40078C12.5702 9.38665 12.534 9.37954 12.4974 9.3799C12.4614 9.38025 12.4259 9.3878 12.393 9.4021C12.36 9.4164 12.3302 9.43716 12.3054 9.46316C12.2806 9.48915 12.2612 9.51986 12.2485 9.55346C12.2357 9.58707 12.2298 9.62288 12.2311 9.6588Z"
    stroke="currentColor" stroke-width="2" stroke-linecap="round" stroke-linejoin="round" />
  <path
    d="M12.5 19.1211C12.3146 19.1211 12.1333 19.0661 11.9792 18.9631C11.825 18.8601 11.7048 18.7137 11.6339 18.5424C11.5629 18.3711 11.5443 18.1826 11.5805 18.0007C11.6167 17.8188 11.706 17.6518 11.8371 17.5207C11.9682 17.3896 12.1352 17.3003 12.3171 17.2641C12.499 17.2279 12.6875 17.2465 12.8588 17.3175C13.0301 17.3884 13.1765 17.5086 13.2795 17.6627C13.3825 17.8169 13.4375 17.9982 13.4375 18.1836C13.4375 18.4322 13.3387 18.6707 13.1629 18.8465C12.9871 19.0223 12.7486 19.1211 12.5 19.1211Z" />
</svg>